<svg width="10" height="18" viewBox="0 0 10 18" fill="none" xmlns="http://www.w3.org/2000/svg">
<path d="M0.470814 8.01871C0.555523 7.93538 0.647415 7.86505 0.744097 7.80389L7.21188 1.41919C7.84285 0.796587 8.86654 0.796292 9.49781 1.41948C10.1291 2.04238 10.1291 3.05267 9.49781 3.67616L3.9277 9.17497L9.52655 14.7024C10.1578 15.3253 10.1578 16.3353 9.52655 16.9591C9.21076 17.2712 8.79679 17.4266 8.38373 17.4266C7.97066 17.4266 7.5564 17.2712 7.24091 16.9591L0.744097 10.5449C0.647415 10.4837 0.554924 10.4134 0.470814 10.3301C0.148144 10.0115 -0.00750451 9.59191 0.000277895 9.17438C-0.00750451 8.75685 0.148144 8.33755 0.470814 8.01871Z" fill="black"/>
</svg>
