<svg width="10" height="18" viewBox="0 0 10 18" fill="none" xmlns="http://www.w3.org/2000/svg">
<path d="M9.52862 8.01913C9.44481 7.9358 9.35202 7.86547 9.25564 7.80431L2.78769 1.4192C2.15643 0.796584 1.13336 0.796289 0.501805 1.41949C-0.129455 2.0424 -0.129455 3.05271 0.501805 3.67621L6.0724 9.17512L0.47367 14.703C-0.15789 15.3256 -0.15789 16.3362 0.47367 16.9597C0.789449 17.2709 1.20281 17.4266 1.61616 17.4266C2.02952 17.4266 2.44378 17.2709 2.75866 16.9591L9.25564 10.5459C9.35202 10.4848 9.44451 10.4147 9.52862 10.3311C9.85188 10.012 10.0069 9.59295 9.99974 9.17512C10.0072 8.75699 9.85188 8.33738 9.52862 8.01913Z" fill="black"/>
</svg>
